<mxfile host="65bd71144e">
    <diagram id="VFYJk5reFoKGlLGRayXy" name="Page-1">
        <mxGraphModel dx="1325" dy="1077" grid="0" gridSize="10" guides="1" tooltips="1" connect="1" arrows="1" fold="1" page="1" pageScale="1" pageWidth="1169" pageHeight="827" background="#FFFFFF" math="0" shadow="0">
            <root>
                <mxCell id="0"/>
                <mxCell id="1" parent="0"/>
                <mxCell id="53" value="" style="rounded=0;whiteSpace=wrap;html=1;strokeColor=#36393d;fillColor=#f9f7ed;" vertex="1" parent="1">
                    <mxGeometry x="52" y="89" width="1098" height="599" as="geometry"/>
                </mxCell>
                <mxCell id="4" value="Frontend&lt;br&gt;Service" style="shape=process;whiteSpace=wrap;html=1;backgroundOutline=1;fillColor=#eeeeee;strokeColor=#000000;fontColor=#000000;" vertex="1" parent="1">
                    <mxGeometry x="360" y="600" width="120" height="60" as="geometry"/>
                </mxCell>
                <mxCell id="51" style="edgeStyle=orthogonalEdgeStyle;rounded=0;html=1;exitX=0.5;exitY=1;exitDx=0;exitDy=0;entryX=0;entryY=0.5;entryDx=0;entryDy=0;endArrow=none;endFill=0;endSize=10;fillColor=#eeeeee;strokeColor=#000000;fontColor=#000000;" edge="1" parent="1" source="5" target="4">
                    <mxGeometry relative="1" as="geometry"/>
                </mxCell>
                <mxCell id="52" style="edgeStyle=orthogonalEdgeStyle;rounded=0;html=1;exitX=1;exitY=0.5;exitDx=0;exitDy=0;entryX=0;entryY=0.5;entryDx=0;entryDy=0;endArrow=none;endFill=0;endSize=10;fillColor=#eeeeee;strokeColor=#000000;fontColor=#000000;" edge="1" parent="1" source="5" target="13">
                    <mxGeometry relative="1" as="geometry"/>
                </mxCell>
                <mxCell id="5" value="Browser" style="shape=process;whiteSpace=wrap;html=1;backgroundOutline=1;fillColor=#eeeeee;strokeColor=#000000;fontColor=#000000;" vertex="1" parent="1">
                    <mxGeometry x="80" y="310" width="120" height="60" as="geometry"/>
                </mxCell>
                <mxCell id="6" value="RateLimiter&lt;br&gt;Service" style="shape=process;whiteSpace=wrap;html=1;backgroundOutline=1;fillColor=#eeeeee;strokeColor=#000000;fontColor=#000000;" vertex="1" parent="1">
                    <mxGeometry x="1000" y="200" width="120" height="60" as="geometry"/>
                </mxCell>
                <mxCell id="14" style="edgeStyle=orthogonalEdgeStyle;html=1;exitX=1;exitY=0.5;exitDx=0;exitDy=0;entryX=0.25;entryY=1;entryDx=0;entryDy=0;endArrow=open;endFill=0;endSize=10;dashed=1;fillColor=#eeeeee;strokeColor=#000000;fontColor=#000000;" edge="1" parent="1" source="7" target="6">
                    <mxGeometry relative="1" as="geometry"/>
                </mxCell>
                <mxCell id="7" value="EmailSender&lt;br&gt;Service" style="shape=process;whiteSpace=wrap;html=1;backgroundOutline=1;fillColor=#eeeeee;strokeColor=#000000;fontColor=#000000;" vertex="1" parent="1">
                    <mxGeometry x="800" y="310" width="120" height="40" as="geometry"/>
                </mxCell>
                <mxCell id="15" style="edgeStyle=orthogonalEdgeStyle;html=1;exitX=1;exitY=0.5;exitDx=0;exitDy=0;entryX=0.5;entryY=1;entryDx=0;entryDy=0;endArrow=open;endFill=0;endSize=10;dashed=1;fillColor=#eeeeee;strokeColor=#000000;fontColor=#000000;" edge="1" parent="1" source="8" target="6">
                    <mxGeometry relative="1" as="geometry"/>
                </mxCell>
                <mxCell id="8" value="EmailVerifier&lt;br&gt;Service" style="shape=process;whiteSpace=wrap;html=1;backgroundOutline=1;fillColor=#eeeeee;strokeColor=#000000;fontColor=#000000;" vertex="1" parent="1">
                    <mxGeometry x="800" y="360" width="120" height="40" as="geometry"/>
                </mxCell>
                <mxCell id="16" style="edgeStyle=orthogonalEdgeStyle;html=1;exitX=1;exitY=0.5;exitDx=0;exitDy=0;entryX=0.75;entryY=1;entryDx=0;entryDy=0;endArrow=open;endFill=0;endSize=10;dashed=1;fillColor=#eeeeee;strokeColor=#000000;fontColor=#000000;" edge="1" parent="1" source="9" target="6">
                    <mxGeometry relative="1" as="geometry"/>
                </mxCell>
                <mxCell id="9" value="DocSynchronizer&lt;br&gt;Service" style="shape=process;whiteSpace=wrap;html=1;backgroundOutline=1;fillColor=#eeeeee;strokeColor=#000000;fontColor=#000000;" vertex="1" parent="1">
                    <mxGeometry x="800" y="410" width="120" height="40" as="geometry"/>
                </mxCell>
                <mxCell id="10" value="LogCollector&lt;br&gt;Service" style="shape=process;whiteSpace=wrap;html=1;backgroundOutline=1;fillColor=#eeeeee;strokeColor=#000000;fontColor=#000000;" vertex="1" parent="1">
                    <mxGeometry x="800" y="460" width="120" height="40" as="geometry"/>
                </mxCell>
                <mxCell id="11" value="MetricsCollector&lt;br&gt;Service" style="shape=process;whiteSpace=wrap;html=1;backgroundOutline=1;fillColor=#eeeeee;strokeColor=#000000;fontColor=#000000;" vertex="1" parent="1">
                    <mxGeometry x="800" y="510" width="120" height="40" as="geometry"/>
                </mxCell>
                <mxCell id="12" value="TraceCollector&lt;br&gt;Service" style="shape=process;whiteSpace=wrap;html=1;backgroundOutline=1;fillColor=#eeeeee;strokeColor=#000000;fontColor=#000000;" vertex="1" parent="1">
                    <mxGeometry x="800" y="560" width="120" height="40" as="geometry"/>
                </mxCell>
                <mxCell id="13" value="API" style="swimlane;whiteSpace=wrap;html=1;collapsible=0;fillColor=#eeeeee;strokeColor=#000000;fontColor=#000000;" vertex="1" parent="1">
                    <mxGeometry x="360" y="120" width="320" height="440" as="geometry"/>
                </mxCell>
                <mxCell id="36" style="edgeStyle=orthogonalEdgeStyle;html=1;exitX=0;exitY=0.5;exitDx=0;exitDy=0;entryX=0.935;entryY=0.998;entryDx=0;entryDy=0;entryPerimeter=0;endArrow=block;endFill=0;endSize=8;fillColor=#eeeeee;strokeColor=#000000;fontColor=#000000;" edge="1" parent="13" source="2" target="26">
                    <mxGeometry relative="1" as="geometry"/>
                </mxCell>
                <mxCell id="2" value="EmailSender" style="rounded=0;whiteSpace=wrap;html=1;fillColor=#eeeeee;strokeColor=#000000;fontColor=#000000;" vertex="1" parent="13">
                    <mxGeometry x="182" y="189.64" width="120" height="30" as="geometry"/>
                </mxCell>
                <mxCell id="40" style="edgeStyle=orthogonalEdgeStyle;html=1;exitX=0;exitY=0.5;exitDx=0;exitDy=0;entryX=0.761;entryY=1.001;entryDx=0;entryDy=0;entryPerimeter=0;endArrow=block;endFill=0;endSize=8;fillColor=#eeeeee;strokeColor=#000000;fontColor=#000000;" edge="1" parent="13" source="18" target="26">
                    <mxGeometry relative="1" as="geometry"/>
                </mxCell>
                <mxCell id="18" value="EmailVerifier" style="rounded=0;whiteSpace=wrap;html=1;fillColor=#eeeeee;strokeColor=#000000;fontColor=#000000;" vertex="1" parent="13">
                    <mxGeometry x="182" y="229.64" width="120" height="30" as="geometry"/>
                </mxCell>
                <mxCell id="38" style="edgeStyle=orthogonalEdgeStyle;html=1;exitX=0;exitY=0.5;exitDx=0;exitDy=0;entryX=0.587;entryY=1.001;entryDx=0;entryDy=0;entryPerimeter=0;endArrow=block;endFill=0;endSize=8;fillColor=#eeeeee;strokeColor=#000000;fontColor=#000000;" edge="1" parent="13" source="19" target="26">
                    <mxGeometry relative="1" as="geometry"/>
                </mxCell>
                <mxCell id="19" value="DocSyncjronizer" style="rounded=0;whiteSpace=wrap;html=1;fillColor=#eeeeee;strokeColor=#000000;fontColor=#000000;" vertex="1" parent="13">
                    <mxGeometry x="182" y="269.64" width="120" height="30" as="geometry"/>
                </mxCell>
                <mxCell id="41" style="edgeStyle=orthogonalEdgeStyle;html=1;exitX=0;exitY=0.5;exitDx=0;exitDy=0;entryX=0.42;entryY=1.002;entryDx=0;entryDy=0;entryPerimeter=0;endArrow=block;endFill=0;endSize=8;fillColor=#eeeeee;strokeColor=#000000;fontColor=#000000;" edge="1" parent="13" source="20" target="26">
                    <mxGeometry relative="1" as="geometry"/>
                </mxCell>
                <mxCell id="20" value="LogCollector" style="rounded=0;whiteSpace=wrap;html=1;fillColor=#eeeeee;strokeColor=#000000;fontColor=#000000;" vertex="1" parent="13">
                    <mxGeometry x="182" y="308.14" width="120" height="30" as="geometry"/>
                </mxCell>
                <mxCell id="42" style="edgeStyle=orthogonalEdgeStyle;html=1;exitX=0;exitY=0.5;exitDx=0;exitDy=0;entryX=0.239;entryY=1;entryDx=0;entryDy=0;entryPerimeter=0;endArrow=block;endFill=0;endSize=8;fillColor=#eeeeee;strokeColor=#000000;fontColor=#000000;" edge="1" parent="13" source="21" target="26">
                    <mxGeometry relative="1" as="geometry"/>
                </mxCell>
                <mxCell id="21" value="MetricsCollector" style="rounded=0;whiteSpace=wrap;html=1;fillColor=#eeeeee;strokeColor=#000000;fontColor=#000000;" vertex="1" parent="13">
                    <mxGeometry x="182" y="349.64" width="120" height="30" as="geometry"/>
                </mxCell>
                <mxCell id="43" style="edgeStyle=orthogonalEdgeStyle;html=1;exitX=0;exitY=0.5;exitDx=0;exitDy=0;entryX=0.065;entryY=1;entryDx=0;entryDy=0;entryPerimeter=0;endArrow=block;endFill=0;endSize=8;fillColor=#eeeeee;strokeColor=#000000;fontColor=#000000;" edge="1" parent="13" source="22" target="26">
                    <mxGeometry relative="1" as="geometry"/>
                </mxCell>
                <mxCell id="22" value="TraceCollector" style="rounded=0;whiteSpace=wrap;html=1;fillColor=#eeeeee;strokeColor=#000000;fontColor=#000000;" vertex="1" parent="13">
                    <mxGeometry x="182" y="389.64" width="120" height="30" as="geometry"/>
                </mxCell>
                <mxCell id="23" value="Services" style="text;html=1;strokeColor=#000000;fillColor=#eeeeee;align=center;verticalAlign=middle;whiteSpace=wrap;rounded=0;fontColor=#000000;" vertex="1" parent="13">
                    <mxGeometry x="212" y="150" width="60" height="30" as="geometry"/>
                </mxCell>
                <mxCell id="33" style="edgeStyle=orthogonalEdgeStyle;html=1;exitX=0;exitY=0.5;exitDx=0;exitDy=0;entryX=0.804;entryY=1.044;entryDx=0;entryDy=0;entryPerimeter=0;endArrow=block;endFill=0;endSize=8;fillColor=#eeeeee;strokeColor=#000000;fontColor=#000000;" edge="1" parent="13" source="24" target="27">
                    <mxGeometry relative="1" as="geometry"/>
                </mxCell>
                <mxCell id="24" value="ClientRepository" style="rounded=0;whiteSpace=wrap;html=1;fillColor=#eeeeee;strokeColor=#000000;fontColor=#000000;" vertex="1" parent="13">
                    <mxGeometry x="182" y="67" width="120" height="30" as="geometry"/>
                </mxCell>
                <mxCell id="26" value="Service Interfaces" style="rounded=0;whiteSpace=wrap;html=1;rotation=-90;fillColor=#eeeeee;strokeColor=#000000;fontColor=#000000;" vertex="1" parent="13">
                    <mxGeometry x="-24.76" y="236.88" width="229.75" height="135.51" as="geometry"/>
                </mxCell>
                <mxCell id="27" value="Repository&lt;br&gt;Interfaces" style="rounded=0;whiteSpace=wrap;html=1;rotation=-90;fillColor=#eeeeee;strokeColor=#000000;fontColor=#000000;" vertex="1" parent="13">
                    <mxGeometry x="99" y="82" width="73" height="45" as="geometry"/>
                </mxCell>
                <mxCell id="28" value="Repositories" style="text;html=1;strokeColor=#000000;fillColor=#eeeeee;align=center;verticalAlign=middle;whiteSpace=wrap;rounded=0;fontColor=#000000;" vertex="1" parent="13">
                    <mxGeometry x="212" y="37" width="60" height="30" as="geometry"/>
                </mxCell>
                <mxCell id="30" style="edgeStyle=orthogonalEdgeStyle;html=1;exitX=1;exitY=0.5;exitDx=0;exitDy=0;entryX=0.5;entryY=0;entryDx=0;entryDy=0;endArrow=block;endFill=0;endSize=15;fillColor=#eeeeee;strokeColor=#000000;fontColor=#000000;" edge="1" parent="13" source="29" target="27">
                    <mxGeometry relative="1" as="geometry"/>
                </mxCell>
                <mxCell id="31" style="edgeStyle=orthogonalEdgeStyle;html=1;exitX=0.5;exitY=1;exitDx=0;exitDy=0;endArrow=block;endFill=0;endSize=15;fillColor=#eeeeee;strokeColor=#000000;fontColor=#000000;" edge="1" parent="13" source="29">
                    <mxGeometry relative="1" as="geometry">
                        <mxPoint x="50" y="190" as="targetPoint"/>
                    </mxGeometry>
                </mxCell>
                <mxCell id="29" value="Controller" style="rounded=0;whiteSpace=wrap;html=1;fillColor=#eeeeee;strokeColor=#000000;fontColor=#000000;" vertex="1" parent="13">
                    <mxGeometry x="20" y="68" width="60" height="73" as="geometry"/>
                </mxCell>
                <mxCell id="17" value="Storage" style="shape=cylinder3;whiteSpace=wrap;html=1;boundedLbl=1;backgroundOutline=1;size=15;fillColor=#eeeeee;strokeColor=#000000;fontColor=#000000;" vertex="1" parent="1">
                    <mxGeometry x="830" y="162" width="60" height="80" as="geometry"/>
                </mxCell>
                <mxCell id="44" style="edgeStyle=orthogonalEdgeStyle;html=1;exitX=1;exitY=0.5;exitDx=0;exitDy=0;entryX=0;entryY=0.5;entryDx=0;entryDy=0;entryPerimeter=0;endArrow=none;endFill=0;endSize=10;fillColor=#eeeeee;strokeColor=#000000;fontColor=#000000;" edge="1" parent="1" source="24" target="17">
                    <mxGeometry relative="1" as="geometry"/>
                </mxCell>
                <mxCell id="45" style="edgeStyle=orthogonalEdgeStyle;html=1;exitX=1;exitY=0.5;exitDx=0;exitDy=0;entryX=0;entryY=0.5;entryDx=0;entryDy=0;endArrow=none;endFill=0;endSize=10;rounded=0;fillColor=#eeeeee;strokeColor=#000000;fontColor=#000000;" edge="1" parent="1" source="2" target="7">
                    <mxGeometry relative="1" as="geometry"/>
                </mxCell>
                <mxCell id="46" style="edgeStyle=orthogonalEdgeStyle;rounded=0;html=1;exitX=1;exitY=0.5;exitDx=0;exitDy=0;entryX=0;entryY=0.5;entryDx=0;entryDy=0;endArrow=none;endFill=0;endSize=10;fillColor=#eeeeee;strokeColor=#000000;fontColor=#000000;" edge="1" parent="1" source="18" target="8">
                    <mxGeometry relative="1" as="geometry"/>
                </mxCell>
                <mxCell id="47" style="edgeStyle=orthogonalEdgeStyle;rounded=0;html=1;exitX=1;exitY=0.5;exitDx=0;exitDy=0;entryX=0;entryY=0.5;entryDx=0;entryDy=0;endArrow=none;endFill=0;endSize=10;fillColor=#eeeeee;strokeColor=#000000;fontColor=#000000;" edge="1" parent="1" source="19" target="9">
                    <mxGeometry relative="1" as="geometry"/>
                </mxCell>
                <mxCell id="48" style="edgeStyle=orthogonalEdgeStyle;rounded=0;html=1;exitX=1;exitY=0.5;exitDx=0;exitDy=0;entryX=0;entryY=0.5;entryDx=0;entryDy=0;endArrow=none;endFill=0;endSize=10;fillColor=#eeeeee;strokeColor=#000000;fontColor=#000000;" edge="1" parent="1" source="20" target="10">
                    <mxGeometry relative="1" as="geometry"/>
                </mxCell>
                <mxCell id="49" style="edgeStyle=orthogonalEdgeStyle;rounded=0;html=1;exitX=1;exitY=0.5;exitDx=0;exitDy=0;entryX=0;entryY=0.5;entryDx=0;entryDy=0;endArrow=none;endFill=0;endSize=10;fillColor=#eeeeee;strokeColor=#000000;fontColor=#000000;" edge="1" parent="1" source="21" target="11">
                    <mxGeometry relative="1" as="geometry">
                        <Array as="points">
                            <mxPoint x="720" y="485"/>
                            <mxPoint x="720" y="530"/>
                        </Array>
                    </mxGeometry>
                </mxCell>
                <mxCell id="50" style="edgeStyle=orthogonalEdgeStyle;rounded=0;html=1;exitX=1;exitY=0.5;exitDx=0;exitDy=0;entryX=0;entryY=0.5;entryDx=0;entryDy=0;endArrow=none;endFill=0;endSize=10;fillColor=#eeeeee;strokeColor=#000000;fontColor=#000000;" edge="1" parent="1" source="22" target="12">
                    <mxGeometry relative="1" as="geometry">
                        <Array as="points">
                            <mxPoint x="710" y="525"/>
                            <mxPoint x="710" y="580"/>
                        </Array>
                    </mxGeometry>
                </mxCell>
            </root>
        </mxGraphModel>
    </diagram>
</mxfile>